/* XPM */
static char *_655950499635[] = {
/* columns rows colors chars-per-pixel */
"50 50 67 1 ",
"  c #47C64C",
". c #FF6100",
"X c #202122",
"o c #46B549",
"O c #323533",
"+ c #232323",
"@ c #303031",
"# c #323232",
"$ c #46C84C",
"% c #449B46",
"& c #374536",
"* c #FF5F00",
"= c #272727",
"- c gray18",
"; c #3F6B3E",
": c #322F31",
"> c #F15C05",
", c white",
"< c #1C2022",
"1 c #2C2522",
"2 c #91421E",
"3 c gray17",
"4 c #3A3432",
"5 c #E95807",
"6 c #7F3D20",
"7 c #482D22",
"8 c #3A6638",
"9 c #CF5618",
"0 c #523122",
"q c #C65116",
"w c #D2510B",
"e c #FB5F02",
"r c #CECECE",
"t c #F65E05",
"y c #A6481B",
"u c #B84D18",
"i c #95441F",
"p c #392823",
"a c #D6D7D7",
"s c #CB5214",
"d c #5F3623",
"f c #393939",
"g c #FD6618",
"h c #E3580D",
"j c #C14700",
"k c #FFCEB9",
"l c #FF9668",
"z c #76381C",
"x c #EFEEEE",
"c c #DEBCAE",
"v c #3D2A23",
"b c #46AB48",
"n c #3E6C3D",
"m c #45A046",
"M c #47C04C",
"N c #CC7B57",
"B c #959595",
"V c #7C7D7D",
"C c #C7A293",
"Z c #B0B2B2",
"A c gray32",
"S c #806A61",
"D c gray59",
"F c #D57247",
"G c #EB8A60",
"H c #8C411E",
"J c #FF2149",
/* pixels */
"                                                  ",
"                                                  ",
"                                                  ",
"                                                  ",
"                                                  ",
"                                                  ",
"                                                  ",
"                                                  ",
"                                                  ",
"            $$$$$$$$$$$$$$$$$$$$$$$$$$$           ",
"           b%%%%%%%%%%%%%%%%%%%%%%%%%%mM          ",
"           n#OOOOOOOOOOOOOOOOOOOOOOOOO&o$         ",
"           ;:#########################&o$         ",
"           ;:#########################&o$         ",
"           ;:##@------@#@-----@#######&o$         ",
"           ;:##@++++++-#=+++++3#######&o$         ",
"           ;:##-++pp1+-#=+1p1+=#######&o$         ",
"           ;:##-+psw7+-#=+i56X=#######&o$         ",
"           ;:##-+v5>7X-#=Xy.2X=#######&o$         ",
"           ;@-==+vh>7X==++y.2X+======@&o$         ",
"           ;@-++Xph>7<XXXXy.2X+XXXX+=@&o$         ",
"           ;@-+pHy>tyiiiiiw.2<ABBDV==@&o$         ",
"           ;@-X7>.........*.2<V,,,r3+@&o$         ",
"           833X7>tqu>*su5**.2<SkkkC==@&o$         ",
"           8X+X7>5v1wed+u.*.2<6...q1=@&o$         ",
"           8X17d>5d0hez7q.*.2<6**.q1=@&o$         ",
"           8X0h>**>>e*>>e**.2<6.*.q1=@&o$         ",
"           8X05tttttggggeee*2<6.*.q1=@&o$         ",
"           8X100000dCcccFwwwz<6.*.q1=@&o$         ",
"           8X+XXXXX-ZaarNjjjz<6**.q1=@&o$         ",
"           8333333+@rxxxG555qys.w6d+=@&o$         ",
"           ;@####@+#a,,,l***....uXX+=@&o$         ",
"           ;:####@+#a,,,l******.u++=3@&o$         ",
"           ;:####@+#a,,,l*......u+=###&o$         ",
"           ;:####@=#ZrrrN9999999i==###&o$         ",
"           ;:#####@#ffff444444444@####&o$         ",
"           ;:#########################&o$         ",
"           ;:#########################&o$         ",
"           n#OOOOOOOOOOOOOOOOOOOOOOOOO&o$         ",
"           b%%%%%%%%%%%%%%%%%%%%%%%%%%mM          ",
"            $$$$$$$$$$$$$$$$$$$$$$$$$$$           ",
"                                                  ",
"                                                  ",
"                                                  ",
"                                                  ",
"                                                  ",
"                                                  ",
"                                                  ",
"                                                  ",
"                                                  "
};
