/* XPM */
static char *_655950505295[] = {
/* columns rows colors chars-per-pixel */
"50 50 99 2 ",
"   c #47C64C",
".  c #45B848",
"X  c #FFEC8E",
"o  c #272A27",
"O  c #222122",
"+  c #7B411E",
"@  c #48C54C",
"#  c #FFEA8D",
"$  c #46C84C",
"%  c #232323",
"&  c #355C35",
"*  c #272726",
"=  c #439F45",
"-  c #5F3116",
";  c #492712",
":  c #FFEE8F",
">  c #2A3E2A",
",  c #EFDA80",
"<  c #793F1B",
"1  c #472411",
"2  c #E9D57E",
"3  c #FDE88C",
"4  c #6E3B1B",
"5  c #313131",
"6  c #8E693A",
"7  c #47BA4B",
"8  c #1F2021",
"9  c #1E1D20",
"0  c #7D421E",
"q  c #422D22",
"w  c #384A37",
"e  c #5C3721",
"r  c #2B3D2A",
"t  c #C2B370",
"y  c #3C1F0D",
"u  c #838381",
"i  c #807750",
"p  c #542D15",
"a  c #312621",
"s  c #8D8357",
"d  c #9CD9E5",
"f  c #A6A6A4",
"g  c #733F20",
"h  c gray50",
"j  c #A1A1A0",
"k  c #252322",
"l  c #70C7D6",
"z  c gray61",
"x  c #E0D08A",
"c  c #E9D993",
"v  c #7B6854",
"b  c gray47",
"n  c #7E7E7F",
"m  c #45A246",
"M  c #68371A",
"N  c #2C2C2C",
"B  c #C9BD88",
"V  c #874A26",
"C  c #8F4E27",
"Z  c gray23",
"A  c #412616",
"S  c #815D40",
"D  c #3B623A",
"F  c #978A7A",
"G  c #746A47",
"H  c gray34",
"J  c #9AD4DF",
"K  c #866954",
"L  c #99CCD4",
"P  c #97D8E4",
"I  c #6F6F6F",
"U  c gray57",
"Y  c #9A8A17",
"T  c #292423",
"R  c #392A22",
"E  c #7C4B2C",
"W  c #71BECA",
"Q  c #374232",
"!  c #7E573C",
"~  c #705817",
"^  c #CBBF89",
"/  c #F2DF8C",
"(  c #47C24B",
")  c #402516",
"_  c #635D42",
"`  c #958473",
"'  c #514C39",
"]  c #B3A666",
"[  c #938B69",
"{  c #8D8355",
"}  c #407440",
"|  c #386E38",
" . c #B6AF14",
".. c #FEFF0C",
"X. c #D2D10F",
"o. c #897518",
"O. c #80764F",
"+. c #47B88E",
"@. c #45EC27",
/* pixels */
"                                                                                                    ",
"                                                                                                    ",
"                    $ $ $ $ $ $ $ $ $ $ $ $ $ $ $ $ $ $ $ $ $ $ $ $ $ $ $ $ $ $                     ",
"                  ( 7 7 7 7 7 7 7 7 7 7 7 7 7 . . . . . . . . . . . . . 7 7 7 7                     ",
"                $ m w w w w w w w w w w w w Q r > > > > > > > > > > r Q w w w } @                   ",
"                $ m 5 5 5 5 5 5 5 5 5 5 5 5 N O O % % % % % % % % % O N 5 5 5 D @                   ",
"                $ m N * * * * * * * * * * * * O Z b b b b b b b b Z O * * * * & @                   ",
"                $ = o O 8 8 8 8 8 8 8 8 8 8 8 9 Z z f f f f f f j Z 9 8 8 O O & @                   ",
"                $ = o k G s s s s s s s s s s { [ j z I I I I z j [ { s s ' 8 & @                   ",
"                $ = o * t : : : : : : : : : : : c f U Z 5 5 Z U f c : : : i 9 & @                   ",
"                $ = o * t : # # # # # # # # # # c f U H H H H U f c # # X i 9 & @                   ",
"                $ = o * t : # # # # # # # # # # c f j j j j j j f c # # X i 9 & @                   ",
"                $ = o * t : # # # # # # # # # # c j z z z z z z j c # # X i 9 & @                   ",
"                $ = o * t : # # # # # # # # # X x u u u u u u u u x X # X i 9 & @                   ",
"                $ = o * t : # # # # # # # # # X x u n h h h h h u x X # X i 9 & @                   ",
"                $ = o * t : # # # # # # # # # X x u h h h h h h u x X # X i 9 & @                   ",
"                $ = o * t : # # # # # # # # # X x u n n n n n n u x X # X i 9 & @                   ",
"                $ = o * t : # # # # # # # # # # / ^ B B B B B B ^ / # # X i 9 & @                   ",
"                $ = o * t : # # # # # # # # # # # X X X X X X X X # # # X i 9 & @                   ",
"                $ = o * t : # # # # # # # # # # # # # # # # # # # # # # X i 9 & @                   ",
"                $ = o * t : # # # # # # # # # # # # # # # # # # # # # # X i 9 & @                   ",
"                $ = o * t : # # # # # # # # # # # # # # # # # # # # # # X i 9 & @                   ",
"                $ = o * t : # # # # # # # # # # # # # # # # # # # # # # X i 9 & @                   ",
"                $ = o * t X 3 3 3 3 3 3 3 3 3 3 3 3 3 3 3 3 3 3 3 3 3 3 # O.9 & @                   ",
"                $ = o * ] , , , , , , , , , , , , , , , , , , , , , , , , G 9 & @                   ",
"                $ = o * ] , 2 2 2 2 2 2 2 2 2 2 2 2 2 2 2 2 2 2 2 2 2 2 , G 9 & @                   ",
"                $ = o % ' _ S 6 6 6 6 6 6 6 6 6 6 6 6 6 6 6 6 6 6 6 6 G _ Q 8 & @                   ",
"                $ = o O 8 8 ; - - - - - - - - - - - - - - - - - - - - a 8 O O & @                   ",
"                $ m N N * % p 4 4 4 4 4 4 4 4 4 4 4 4 4 4 4 4 4 4 4 4 q O * o D @                   ",
"                $ m 5 5 * % e 0 0 0 0 0 0 0 0 0 0 + + < < < < < < + + q O N 5 D @                   ",
"                $ m 5 N * % e 0 4 M M M M M M M 4 + E v v v v v v E + q O o N D @                   ",
"                $ = o % % % e 0 p y y y y y y y ; < ! W l l l l W v < q O % O & @                   ",
"                $ = o % % % e 0 p y y y y y y y ; < ! W l l l l l v < q O % O & @                   ",
"                $ = o % % % e 0 - 1 ; 1 1 ; ; 1 p < S L P P P P J K < q O % O & @                   ",
"                $ = o % % % e 0 - ; ; p ; ; ; ; p < S L d d d d J K < q O % O & @                   ",
"                $ = o % % % e 0 - 1 o.X.Y ; ; ; p < S L d d d d J K < q O % O & @                   ",
"                $ = o % % % e 0 - 1 Y .. .; ; ; p < S L d d d d J K < q O % O & @                   ",
"                $ = o % % % e 0 - 1 ~ Y ~ ; ; ; p < E ` F F F F F ! + q O % O & @                   ",
"                $ = o % % % e 0 - ; 1 1 1 ; ; ; p < 0 C C C C C C 0 + q O % O & @                   ",
"                $ = o % % % e 0 - ; ; ; ; ; ; ; p < 0 V V V V V V 0 + q O % O & @                   ",
"                $ = o % % % e 0 - ; ; ; ; ; ; ; p < + + + + + + + + + q O % O & @                   ",
"                $ = o % % % e 0 - ) A A A A A ) p < + + + + + + + + + q O % O & @                   ",
"                $ = o % % % e 0 q % k k k k k k R < + + + + + + + + + q O % O & @                   ",
"                $ = o % % % e g q O % % % % % % R g g g g g g g g g g q O % O & @                   ",
"                $ = o O O O T a T O O O O O O O k a a a a a a a a a a T O O 8 & @                   ",
"                $ m > r > > > r > > > > > > > > > r r r r r r r r r r > > > r | @                   ",
"                  ( . . . . . . . . . . . . . . . . . . . . . . . . . . . . . 7                     ",
"                    $ $ $ $ $ $ $ $ $ $ $ $ $ $ $ $ $ $ $ $ $ $ $ $ $ $ $ $ $ $                     ",
"                                                                                                    ",
"                                                                                                    "
};
