/* XPM */
static char *_b81d7c6748e4e22cbca530a5031371cznygEueh4bD9P8Ym[] = {
/* columns rows colors chars-per-pixel */
"64 64 5 1 ",
"  c #8C6D3F",
". c #9D8756",
"X c #67A7E3",
"o c #9FD2E5",
"O c #F2EDF1",
/* pixels */
"OOOOOOOOOOOOOOOOOOOOOOOO . ..         ..OOOOOOOOOOOOOOOOOOOOOOOO",
"OOOOOOOOOOOOOOOOOOoOOoOO      .. ...    OOOOOOOOOOOOOOoOOOoOOOOO",
"OOOOOoOOoOOOOOOOOOOooOOO..   ... ....  .OOOOOOOOOOOOOOOoooOOOOOO",
"OOOOOOooOOOOOOOOOOOOOOOO...   .. .... ..OOOOOOOOOOOOOOOOOOOOOOOO",
"OOOOOOOOOOOOOOOOOOOOOOOo...       ...  .OOOOOOOOOOOOOOOOOOOOOOOO",
"OOOOOOOOOOOOOOOOOOOOOOOX     .          oOOOOOOOOOOOOOOOOOOOOOOO",
"OOOOOOOOOOOOOOOOOOOOOOO  .. ... ..  ... XoOOOoooooOOOOOOoooooOOO",
"oooooooOOOOOOOOOOOOOOOOO...  .  ...  .. .XoooXXXXXooooooXXXXXooo",
"XXXXXXXoOOOOOOOOOOOOOOOO...      .. . . ..XXX    .XXXXXX...  XXX",
"   ... XOOOOOOOOOOOOOOOO .  ...    ...   .  ...    ...   .  ... ",
". .... .OOOOOOOOOoOOoOOO   .... . .... .   .... . .... .   .... ",
"   ...  OOOOOOOOOOooOOOo    ..     ...      ..     ...      ..  ",
"..  . ..OOOOOOOOOOOOOOOX.  .    ..  . ...  .    ..  . ...  .    ",
"...  ...OOOOOOOOOOOOOOO.. .. .. ...  .... .. .. ...  .... .. .. ",
"...   ..oOOOOOOOOOOOOOO.  .. .. ...   ..  .. .. ...   ..  .. .. ",
"..  . ..XOOOOOOOOOOOOOOO   .  . ..  . ..   .  . ..  . ..   .  . ",
"      .. OOOOOOOOOOOOOOO . ..         .. . ..         .. . ..   ",
" ...     OOOOOOOOOOOOOOO      .. ...          .. ...          ..",
" ....  .OOOOOOOOOOoOOoOO..   ... ....  ...   ... ....  ...   ...",
" .... ..OOOOoOOoOOOooOOO...   .. .... .....   .. .... .....   ..",
"  ...  .OOOOOooOOOOOOOOO...       ...  ....       ...  ....     ",
"        oOOOOOOOOOOOOOOo     .               .               .  ",
"..  ... XoOOOOOOOOOOOOoX .. ... ..  ...  .. ... ..  ...  .. ... ",
"...  .. .XooooooooooooX ...  .  ...  .. ...  .  ...  .. ...  .  ",
"OOOOOO. ..XXXXXXXXXXXX. ...      .. . . ...      .. . . ..OOOOOO",
"OOOOOOO  .  ...    ...   .  ...    ...   .  ...    ...   OOOOOOO",
"OOOOOOOO   .... . .... .   .... . .... .   .... . .... .OOOOOOOO",
"oOOoOOOO    ..     ...      ..     ...      ..     ...  OOOOOOOO",
"OooOOOOO.  .    ..  . ...  .    ..  . ...  .    ..  . ..oOOOOOOO",
"OOOOOOOO. .. .. ...  .... .. .. ...  .... .. .. ...  ...XOOOOOOO",
"OOOOOOOO  .. .. ...   ..  .. .. ...   ..  .. .. ...   .. OOOOOOO",
"OOOOOOOO   .  . ..  . ..   .  . ..  . ..   .  . ..  . ..OOOOOOOO",
"OOOOOOOo . ..         .. . ..         .. . ..         ..OOOOOOOO",
"OOOOOOOX      .. ...          .. ...          .. ...    OOOOOOOO",
"OOOOOOO...   ... ....  ...   ... ....  ...   ... ....  .OOOOOOOO",
"OOOOOOO....   .. .... .....   .. .... .....   .. .... ..OOOOOOOO",
"OOOOOOO....       ...  ....       ...  ....       ...  .oOOOOOOO",
"OOOOOOOO     .               .               .          XOOoOOoO",
"OOOOOOOO .. ... ..  ...  .. ... ..  ...  .. ... ..  ...  OOOooOO",
"OOOOOOOOO..  .  ...  .. ...  .  ...  .. ...  .  ...  .. OOOOOOOO",
"OOOOOOOOOOO   OOOOOOOO. ...OOOOOOOOOOO. ...      .. . . OOOOOOOO",
"OOOOOOOOOOOOOOOOOOOOOOOOOOOOOOOOOOOOOOO  .  ...    ...  oOOOOOOO",
"OOOOOOOOOOOOOOOOOOOOOOOOOOOOOOOOOOOOOOOO   .... . .... .XOOOOOOO",
"OOOoOOoOOOOOOOOOOoOOOoOOOOOOOOOOOoOOoOOO    ..     ...   OOOOOOO",
"OOOOooOOOOOOOOOOOOoooOOOOoOOoOOOOOooOOOo.  .    ..  . ..OOOOOOOO",
"OOOOOOOOOOOOOOOOOOOOOOOOOOooOOOOOOOOOOO.. .. .. ...  ...OOOOOOOO",
"OOOOOOOOOOOOOOOOOOOOOOOOOOOOOOOOOOOOOOO.  .. .. ...   ..OOOOOOOO",
"OOOOOOOOOOOOOOOOOOOOOOOOOOOOOOOOOOOOOOOO   .  . ..  . ..OOOOOOOO",
"OOOOOOOOOOOOOOOOOOOOOOOOOOOOOOOOOOOOOOOO . ..         ..oOOOOOOO",
"OOOOOOOOOOOOOOOOOOOOOOOOOOOOOOOOOoOOoOOO      .. ...    XOOOOOOO",
"OOOOOOOOOOOOOOOOOOOOOOOOOOOOOOOOOOooOOOO..   ... ....  ..OOOOOOO",
"OOOOOOOOOoOOOoOOOOoOOoOOOOOOOOOOOOOOOOOO...   .. .... ..OOOOOOOO",
"OOOOOOOOOOoooOOOOOOooOOOOOOOOOOOOOOOOOOO...       ...  .OOOOOOOO",
"OOOOOOOOOOOOOOOOOOOOOOOOOOOOOOOOOOOOOOOO     .          OOOOoOOo",
"OOOOOOOOOOOOOOOOOOOOOOOOOOOOOoooooOOOOOo .. ... ..  ... OOOOOooO",
"OoOOOOOoOOOOOOOOOOOOOOOOOooooXXXXXoooooX...  .  ...  ..OOOOOOOOO",
"OOoOOooOOOOOOOOOOOOOOOOOoXXXX    .XXXXX ..OOOO OOO. .OOOOOOOOOOO",
"OOOooOOOOOOOOOOOOOOOOOOOX.  ...    ...   OOOOOOOOOOOOOOOOOOOOOOO",
"OOOOOOOOOOOOOOOOOOOOOOOO   .... . .... .OOOOOOOOOOOOOOOOOOOOOOOO",
"OOOOOOOOOOOOOOOOOOOOOOOO    ..     ...  OOOOOOOOOOoOOoOOOOOOOOOO",
"OOOOOOOOoOOoOOOOOOOOOOOO.  .    ..  . ..OOOoOOoOOOOooOOOOOOOOOOO",
"OOOOOOOOOooOOOOOOOOOOOOO. .. .. ...  ...OOOOooOOOOOOOOOOOOoOOOoO",
"OOOOOOOOOOOOOOOOOOOOOOOO  .. .. ...   ..OOOOOOOOOOOOOOOOOOOoooOO",
"OOOOOOOOOOOOOOOOOOOOOOOO   .  . ..  . ..OOOOOOOOOOOOOOOOOOOOOOOO"
};
