/* XPM */
static char *_655950516367[] = {
/* columns rows colors chars-per-pixel */
"50 50 20 1 ",
"  c #1D7B23",
". c #2A2726",
"X c #252625",
"o c #734021",
"O c #7B411F",
"+ c #7C411E",
"@ c #6C3E23",
"# c #329B36",
"$ c #222122",
"% c #333231",
"& c #633A21",
"* c #2E622D",
"= c #302924",
"- c #493121",
"; c #2C4E2C",
": c #255225",
"> c #253724",
", c #58451B",
"< c #30632E",
"1 c #332A25",
/* pixels */
"OOOOOOOOO++++++++++++++++++++++++++++++++OOOOOOOOO",
"OOOOOOOOo&&&&&&&&&&&&&&&&&&&&&&&&&&&&&&&&OOOOOOOOO",
"OOOOOOO+@.XXXXXXXXXXXXXXXXXXXXXXXXXXXXXX1oOOOOOOOO",
"OOOOOOO+@.$X$$$$$$$$$$$$$$$$$$$$$$$$$$X$=oOOOOOOOO",
"OOOOOOO+@.$>;;;;;;;;;;;;;;;;;;;;;;;;;;>$=oOOOOOOOO",
"OOOOOOO+@.$*##########################*$=oOOOOOOOO",
"OOOOOOO+@.$<##########################<$=oOOOOOOOO",
"OOOOOOO+@.$<##########################<$=oOOOOOOOO",
"OOOOOOO+@.$<##########################<$=oOOOOOOOO",
"OOOOOOO+@.$<##########################<$=oOOOOOOOO",
"OOOOOOO+@.$<##########################<$=oOOOOOOOO",
"OOOOOOO+@.$<##########################<$=oOOOOOOOO",
"OOOOOOO+@.$<##########################<$=oOOOOOOOO",
"OOOOOOO+@.$<##########################<$=oOOOOOOOO",
"OOOOOOO+@.$<##########################<$=oOOOOOOOO",
"OOOOOOO+@.$<##########################<$=oOOOOOOOO",
"OOOOOOO+@.$<##########################<$=oOOOOOOOO",
"OOOOOOO+@.$<##########################<$=oOOOOOOOO",
"OOOOOOO+@.$<##########################<$=oOOOOOOOO",
"OOOOOOO+@.$<##########################<$=oOOOOOOOO",
"OOOOOOO+@.$<##########################<$=oOOOOOOOO",
"OOOOOOO+@.$<##########################<$=oOOOOOOOO",
"OOOOOOO+@.$<##########################<$=oOOOOOOOO",
"OOOOOOO+@.$<##########################<$=oOOOOOOOO",
"OOOOOOO+@.$*##########################*$=oOOOOOOOO",
"OOOOOOO+@.$:                          :$=oOOOOOOOO",
"OOOOOOO+@.$:                          :$=oOOOOOOOO",
"OOOOOOO+@.$:                          :$=oOOOOOOOO",
"OOOOOOO+@.$:                          :$=oOOOOOOOO",
"OOOOOOO+@.$:                          :$=oOOOOOOOO",
"OOOOOOO+@.$:                          :$=oOOOOOOOO",
"OOOOOOO+@.$:                          :$=oOOOOOOOO",
"OOOOOOO+@.$:                          :$=oOOOOOOOO",
"OOOOOOO+@.$:                          :$=oOOOOOOOO",
"OOOOOOO+@.$:                          :$=oOOOOOOOO",
"OOOOOOO+@.$X>>>>>>>>-,,,,,,,,->>>>>>>>X$=oOOOOOOOO",
"OOOOOOO+@.$X$$$$$$$$-&&&&&&&&-$$$$$$$$$$=oOOOOOOOO",
"OOOOOOO+@=........X$-@&&&&&&&-$X........1oOOOOOOOO",
"OOOOOOO+@%%%%%%%%%X$-+O++++++-$X%%%%%%%%%oOOOOOOOO",
"OOOOOOO+@%%%%%%%%%X$-+O++++++-$X%%%%%%%%%oOOOOOOOO",
"OOOOOOO+@%%%%%%%XXX$-+O++++++-$XX.%%%%%%%oOOOOOOOO",
"OOOOOOO+@%%%%%%%X$$X-+OOOOO++-$$$X%%%%%%%oOOOOOOOO",
"OOOOOOO+@%%%%%%%X$$$-+OOOOOO+-$$$X%%%%%%%OOOOOOOOO",
"OOOOOOO+@%%%%%%%X$$X-+OOOOOO+-$X$X%%%%%%%oOOOOOOOO",
"OOOOOOO+@%%%%%%%$$$$-+OOOOOO+-$$$X%%%%%%%OOOOOOOOO",
"OOOOOOO+@%%%%%%%X$$$1--------1$$$X%%%%%%%oOOOOOOOO",
"OOOOOOO+@%%%%%%%$$X$$$$$$$$$$$$X$X%%%%%%%OOOOOOOOO",
"OOOOOOO+@%%%%%%%..................%%%%%%%oOOOOOOOO",
"OOOOOOOOO@o@o@o@@@@@@@@@@@@@@@@@@@o@o@oooOOOOOOOOO",
"OOOOOOOOO++++++++++++++++++++++++++++++++OOOOOOOOO"
};
