/* XPM */
static char *_3707f3d8e6c4c9cf7d7d7d151749bf0brB6JfGqbq4oL0Ju[] = {
/* columns rows colors chars-per-pixel */
"48 64 8 1 ",
"  c None",
". c black",
"X c #252D25",
"o c gray32",
"O c #8C6D3F",
"+ c #53824A",
"@ c #9D8756",
"# c #A2D265",
/* pixels */
"                       .                        ",
"                      .#.                       ",
"                     .++#.                      ",
"                    .++###.                     ",
"                   .X+#+X##.                    ",
"                  .X++++++##.                   ",
"                 ..+X++X#X+X.                   ",
"                  .++#+++#+.                    ",
"                  .++++++###.                   ",
"                 .X+++++++#X#.                  ",
"                .++X+#++#X+++.                  ",
"               .++++X+X+X#+++.                  ",
"              .++++#+++++###+#.                 ",
"             .++++##++++++#+++#.                ",
"             .++X##++++++++##++#..              ",
"              .X##++++++#+++##++##.             ",
"              .X+++++++#++++++XX++#.            ",
"             .X++++++X+XX+X++++XXX.             ",
"           ..X+++++X+++X+++XX++#..              ",
"         ..+++++++#+++++++++++++..              ",
"        .++++++++#++++++++#+++++++.             ",
"       .++++++X+++++++++++++++++XX#.            ",
"        .XX..XX+X+XX+XX++++++++X+++#.           ",
"         ...++XX+XX++++X+XXX+X+++#++#.          ",
"          .+++++++#+++++++++++#+++#++..         ",
"       ...+++++++#++++++#+++#++#++##+.          ",
"      .++++++++##++++#+++++++#++#++X.           ",
"     .++++X.X++++++++##+++++++#+XX+++..         ",
"      .XXX..+XXX+X+XX#++++XXX+X++++++##..       ",
"       ....++++++++++XXXX++#+++++++#+++##.      ",
"        .++++++++++++++##++++++#++++#++++#.     ",
"       .++++#++++++++++#+#++++++++++++XXX.      ",
"        .XX+++++++++++++++#++++++XX++XXX.       ",
"       ..++XXXX+XX++++++++++++#X++XX++#.        ",
"     ..++++++++XX++XXXXX+XX+XXX+++++++##.       ",
"    .+++++++++++++++#++++++++++++++++++##.      ",
"   .+++++++++++#++++#+++++++++++#+#+#+++##.     ",
"    .XXX+++++#+#++++#++++++#+++++++++++++##.    ",
"     ...X+++++#++++##++++++##+++++##+++++++#.   ",
"       .X+++##+++++++++++X++#++++++###+++XX.    ",
"      .XXX+++++++++++++++++++#++++++++++XX.     ",
"     .X++X+XX+++++++++++++++++++++++++++X#.     ",
"    .X++#+XXX+X+XX+++++XX+++XX++++X+XX+X+##.    ",
"   .X++#++++++XXXXX+XXXXX++XXXXX+XXX+X#+++##.   ",
"  .X++##+++++++++#+++++#+++++++++++++++#+++##.  ",
" .X+++++++++++++++++++++++++++++++++++++#+++##. ",
".X++#++++++#++++++++++++++++++++++#+++++++++++X.",
" .X#++++++#++++++++++++++++++#+++++##+XX+++++X. ",
"  .X+XXX....++++++#+++++++#++#++++++##..XXXXX.  ",
"   .XX.. .+++++++#+++++++++#++#+++++#+#......   ",
"    ..  .X+XX+++#+++#++.+++#+++#X.X++X+X.       ",
"         .XX.X+#++X.X.+.XXX#++XX.o.X+.X.        ",
"      oooo..o..X.X....X....XX.X.ooo.Xo.ooo      ",
"    ooooooooooo.o.o.XX.XXX.X...ooooo.ooooooo    ",
"  ooooooooooooooooo.OOXOOOX.X.oooooooooooooooo  ",
" ooooooooooooooooo.OO@@@@@OXO.ooooooooooooooooo ",
"oooooooooooooooo..OO@@@@@@@OO..O.ooooooooooooooo",
"ooooooooooooooo.OOO@@@@@@@@@@@O.oooooooooooooooo",
" ooooooooooooooooooo.O.O..OOO.ooooooooooooooooo ",
"  ooooooooooooooooo.O.O.oo...O.ooooooooooooooo  ",
"    ooooooooooooooo.O..oooooo.oooooooooooooo    ",
"      oooooooooooooo.ooooooooooooooooooooo      ",
"          oooooooooooooooooooooooooooo          ",
"                oooooooooooooooo                "
};
