/* XPM */
static char *_655950509166[] = {
/* columns rows colors chars-per-pixel */
"50 50 38 1 ",
"  c #323132",
". c #272727",
"X c #222223",
"o c #322923",
"O c #47C64C",
"+ c #8E502B",
"@ c #7B411F",
"# c #47C84C",
"$ c #623318",
"% c #222323",
"& c #449E47",
"* c #47B449",
"= c #47AF49",
"- c #363F35",
"; c #40753F",
": c #333633",
"> c #364436",
", c #854B29",
"< c #5B331C",
"1 c #2C2C2C",
"2 c #804723",
"3 c #8A4C28",
"4 c #373230",
"5 c #713E1D",
"6 c #603D29",
"7 c #F7FF00",
"8 c #462D1E",
"9 c #AB8D20",
"0 c #93761A",
"q c #D9D70F",
"w c #DAD90B",
"e c #A57B28",
"r c #384737",
"t c #385038",
"y c #663918",
"u c #473127",
"i c #322723",
"p c #272223",
/* pixels */
"OOOOOOOOOOOOOOOOOOOOOOOOOOOOOOOOOOOOOOOOOOOOOOOOOO",
"OOOOOOOOOOOOOOOOOOOOOOOOOOOOOOOOOOOOOOOOOOOOOOOOOO",
"OOOOOOOOOOOOOOOOOOOOOOOOOOOOOOOOOOOOOOOOOOOOOOOOOO",
"OOOOOOOOOOOOOOOOOOOOOOOOOOOOOOOOOOOOOOOOOOOOOOOOOO",
"OOOOOO**************************************OOOOOO",
"OOOO#&r>>>>>>>>>>>>>>>>>>>>>>>>>>>>>>>>>>>>t*OOOOO",
"OOOO#&:                                    -=OOOOO",
"OOOO#&:                                    -=OOOOO",
"OOOO#&:                                    -=OOOOO",
"OOOO#&:                                    -=OOOOO",
"OOOO#&:   1.............................1  -=OOOOO",
"OOOO#&:   .%%.%%p%%p%%.%%p%%p%%.%%p%%p%%1  -=OOOOO",
"OOOO#&:   .%%%%%%%%%%%%%%%%%%%%%%%%%%%%%1  -=OOOOO",
"OOOO#&:   .%%%%%%%%%%%%%%%%%%%%%%%%%%%%%1  -=OOOOO",
"OOOO#&:   .%%%.ooooiiiioooooiiiioooop%%%1  -=OOOOO",
"OOOO#&:   .%%%6,,,255552,,,@555@,,,2o%%%1  -=OOOOO",
"OOOO#&:   .%%%6+++3@@@@++++,@@@2+++,oX%%1  -=OOOOO",
"OOOO#&:   .%%%6+++3@@@@3+++,@@@2+++3oX%%1  -=OOOOO",
"OOOO#&:   .%%%6+++3@@@@3+++,@@@2+++,oX%%1  -=OOOOO",
"OOOO#&:   .%%%6+++3@@@@3+++,@@@2+++3oX%%1  -=OOOOO",
"OOOO#&:   .%%%6+++3@@@@3+++,@@@2+++,oX%%1  -=OOOOO",
"OOOO#&:   .%%%6+++3@@@@3+++,@@@2+++3oX%%1  -=OOOOO",
"OOOO#&:   .%%%6+++3@@@@3+++,@@@2+++,oX%%1  -=OOOOO",
"OOOO#&:   .%%%6+++3@@@@3+++,@@@2+++3oX%%1  -=OOOOO",
"OOOO#&:   .%%%6+++3@@@@3+++,@@@2+++,oX%%1  -=OOOOO",
"OOOO#&:   .%%%6+++3@@@@3+++,@@@2+++3oX%%1  -=OOOOO",
"OOOO#&:   .%%%6+++3@@@@3+++,@@@2+++,oX%%1  -=OOOOO",
"OOOO#&:   .%%%6+++3@@@@3+++2@@@2+++3oX%%1  -=OOOOO",
"OOOO#&:   .%%%<2222555@e999+555@222@o%%%1  -=OOOOO",
"OOOO#&:   .%%%8$$$$$$$5q7779$$$$$$$<i%%%1  -=OOOOO",
"OOOO#&:   .%%%8$$$$$$$5w7779$$$$$$$<i%%%1  -=OOOOO",
"OOOO#&:   .%%%8$$$$$$$5w7779$$$$$$$<i%%%1  -=OOOOO",
"OOOO#&:   .%%%8$$$$$$$5q7779$$$$$$$<i%%%1  -=OOOOO",
"OOOO#&:   .%%%8$$$$$$$$00002$$$$$$$<i%%%1  -=OOOOO",
"OOOO#&:   .%%%8$$$$$$$$<$$$$$$$$$$$<i%%%1  -=OOOOO",
"OOOO#&:   .%%%8$$$$$$$$$$$$$$$$$$$$<i%%%1  -=OOOOO",
"OOOO#&:   .%%%8$$$$$$$$$$$$$$$$$$$$$i%%%1  -=OOOOO",
"OOOO#&:   ....8<<<<<<<<<<<<<<<<<<<<<i...1  -=OOOOO",
"OOOO#&:        44444444444444444444        -=OOOOO",
"OOOO#&:                     :              -=OOOOO",
"OOOO#&:                                    -=OOOOO",
"OOOO#&:                                    -=OOOOO",
"OOOO#&:                                    -=OOOOO",
"OOOO#&:                                    -=OOOOO",
"OOOO#&                                     -=OOOOO",
"OOOOO=;;;;;;;;;;;;;;;;;;;;;;;;;;;;;;;;;;;;;;*OOOOO",
"OOOOOO########################################OOOO",
"OOOOOOOOOOOOOOOOOOOOOOOOOOOOOOOOOOOOOOOOOOOOOOOOOO",
"OOOOOOOOOOOOOOOOOOOOOOOOOOOOOOOOOOOOOOOOOOOOOOOOOO",
"OOOOOOOOOOOOOOOOOOOOOOOOOOOOOOOOOOOOOOOOOOOOOOOOOO"
};
